IKResults
version=1
nRows=230
nColumns=3
inDegrees=yes

Units are S.I. units (second, meters, Newtons, ...)
If the header above contains a line with 'inDegrees', this indicates whether rotational values are in degrees (yes) or radians (no).

endheader
time	r_shoulder_elev	r_elbow_flex
     13.59200000	      1.96708076	    101.14203878
     13.60000000	      1.95524188	    101.14484173
     13.60800000	      1.94354237	    101.14615450
     13.61700000	      1.93185444	    101.14752746
     13.62500000	      1.92077789	    101.14490528
     13.63300000	      1.90829578	    101.14268124
     13.64200000	      1.89643749	    101.13973726
     13.65000000	      1.88300270	    101.13631649
     13.65800000	      1.86661528	    101.13719032
     13.66700000	      1.85214313	    101.13349327
     13.67500000	      1.83454782	    101.13326343
     13.68300000	      1.81697626	    101.13432358
     13.69200000	      1.79839240	    101.13635063
     13.70000000	      1.77988754	    101.13825358
     13.70800000	      1.76177426	    101.14210399
     13.71700000	      1.74153286	    101.14822583
     13.72500000	      1.72248295	    101.15269353
     13.73300000	      1.70155739	    101.16178008
     13.74200000	      1.68164295	    101.16967106
     13.75000000	      1.66091558	    101.17829825
     13.75800000	      1.64005510	    101.18701742
     13.76700000	      1.61925027	    101.19567840
     13.77500000	      1.59871987	    101.20628188
     13.78300000	      1.57822583	    101.21679117
     13.79200000	      1.55766469	    101.22735172
     13.80000000	      1.53822158	    101.23641596
     13.80800000	      1.51769229	    101.24688597
     13.81700000	      1.49722893	    101.25720866
     13.82500000	      1.47765940	    101.26675368
     13.83300000	      1.45710032	    101.27797525
     13.84200000	      1.43669718	    101.29088216
     13.85000000	      1.41626483	    101.30378742
     13.85800000	      1.39597003	    101.31601042
     13.86700000	      1.37477737	    101.33237349
     13.87500000	      1.35327990	    101.34553435
     13.88300000	      1.33208246	    101.36198021
     13.89200000	      1.31204249	    101.37605047
     13.90000000	      1.29076149	    101.39203858
     13.90800000	      1.27099495	    101.40862084
     13.91700000	      1.25113733	    101.42495269
     13.92500000	      1.23226163	    101.44049703
     13.93300000	      1.21297897	    101.45382943
     13.94200000	      1.19523061	    101.46884858
     13.95000000	      1.17734226	    101.48300989
     13.95800000	      1.15912006	    101.49541835
     13.96700000	      1.14239057	    101.50912788
     13.97500000	      1.12524093	    101.51995911
     13.98300000	      1.10917258	    101.53062930
     13.99200000	      1.09340605	    101.54340557
     14.00000000	      1.07833727	    101.55189011
     14.00800000	      1.06356441	    101.56370443
     14.01700000	      1.05085962	    101.57238622
     14.02500000	      1.03806891	    101.58146155
     14.03300000	      1.02739432	    101.58812746
     14.04200000	      1.01666964	    101.59496711
     14.05000000	      1.00593990	    101.60177520
     14.05800000	      0.99596456	    101.60520795
     14.06700000	      0.98729517	    101.61047639
     14.07500000	      0.97855606	    101.61505095
     14.08300000	      0.96982748	    101.61982643
     14.09200000	      0.96109699	    101.62454140
     14.10000000	      0.95259787	    101.63181639
     14.10800000	      0.94399885	    101.63862187
     14.11700000	      0.93668413	    101.64677623
     14.12500000	      0.92803130	    101.65349893
     14.13300000	      0.91962460	    101.66266104
     14.14200000	      0.91095605	    101.66946712
     14.15000000	      0.90260402	    101.67856936
     14.15800000	      0.89412061	    101.68759395
     14.16700000	      0.88569665	    101.69656996
     14.17500000	      0.87600613	    101.70422993
     14.18300000	      0.86760401	    101.71338013
     14.19200000	      0.85882359	    101.72027131
     14.20000000	      0.85018148	    101.72725964
     14.20800000	      0.84118081	    101.73180333
     14.21700000	      0.83127920	    101.73777865
     14.22500000	      0.82235299	    101.74273337
     14.23300000	      0.81442313	    101.74365542
     14.24200000	      0.80505736	    101.74697035
     14.25000000	      0.79492043	    101.75075301
     14.25800000	      0.78573452	    101.75377971
     14.26700000	      0.77548042	    101.75505565
     14.27500000	      0.76603981	    101.75619957
     14.28300000	      0.75559839	    101.75798557
     14.29200000	      0.74519186	    101.75984601
     14.30000000	      0.73350948	    101.76332341
     14.30800000	      0.72201977	    101.76649420
     14.31700000	      0.71048369	    101.76980745
     14.32500000	      0.69785763	    101.77300916
     14.33300000	      0.68539145	    101.77715206
     14.34200000	      0.67290131	    101.78124349
     14.35000000	      0.65817216	    101.78534782
     14.35800000	      0.64550275	    101.78731532
     14.36700000	      0.63180267	    101.79072030
     14.37500000	      0.61715858	    101.79482182
     14.38300000	      0.60487965	    101.79871174
     14.39200000	      0.59023798	    101.80279354
     14.40000000	      0.57777639	    101.80443640
     14.40800000	      0.56357762	    101.81052504
     14.41700000	      0.55137182	    101.81415007
     14.42500000	      0.53726581	    101.82113453
     14.43300000	      0.52543150	    101.82677367
     14.44200000	      0.51263724	    101.83307451
     14.45000000	      0.50117127	    101.84098602
     14.45800000	      0.49055397	    101.84746938
     14.46700000	      0.48057500	    101.85563158
     14.47500000	      0.47031903	    101.86407952
     14.48300000	      0.46019699	    101.87191627
     14.49200000	      0.45113063	    101.87887289
     14.50000000	      0.44310044	    101.88487615
     14.50800000	      0.43445430	    101.89380054
     14.51700000	      0.42659306	    101.90185622
     14.52500000	      0.42001836	    101.90832469
     14.53300000	      0.41221264	    101.91634572
     14.54200000	      0.40453177	    101.92418621
     14.55000000	      0.39813243	    101.93271711
     14.55800000	      0.39067537	    101.94256868
     14.56700000	      0.38527703	    101.95024265
     14.57500000	      0.37870750	    101.95940436
     14.58300000	      0.37331135	    101.96708036
     14.59200000	      0.36789707	    101.97483413
     14.60000000	      0.36338798	    101.98182098
     14.60800000	      0.35928077	    101.98928846
     14.61700000	      0.35592916	    101.99446235
     14.62500000	      0.35366833	    102.00043620
     14.63300000	      0.35001174	    102.00650492
     14.64200000	      0.34849529	    102.00937705
     14.65000000	      0.34826425	    102.01279185
     14.65800000	      0.34607433	    102.01349990
     14.66700000	      0.34719486	    102.01473631
     14.67500000	      0.34719486	    102.01473631
     14.68300000	      0.34814259	    102.01603085
     14.69200000	      0.34814259	    102.01603085
     14.70000000	      0.34935062	    102.01622106
     14.70800000	      0.35169149	    102.01084922
     14.71700000	      0.35333450	    102.01076717
     14.72500000	      0.35625230	    102.00630176
     14.73300000	      0.35920773	    102.00124266
     14.74200000	      0.36220243	    101.99571765
     14.75000000	      0.36620517	    101.98933734
     14.75800000	      0.36926261	    101.98272284
     14.76700000	      0.37149777	    101.97587241
     14.77500000	      0.37575842	    101.97055901
     14.78300000	      0.37929703	    101.96148720
     14.79200000	      0.38239121	    101.95689588
     14.80000000	      0.38633319	    101.95063185
     14.80800000	      0.38925604	    101.94523036
     14.81700000	      0.39313616	    101.93901318
     14.82500000	      0.39707674	    101.93274734
     14.83300000	      0.40069962	    101.92376655
     14.84200000	      0.40473091	    101.91820123
     14.85000000	      0.40986094	    101.91044269
     14.85800000	      0.41340814	    101.90135968
     14.86700000	      0.41961807	    101.89361960
     14.87500000	      0.42446516	    101.88398062
     14.88300000	      0.42898089	    101.87278607
     14.89200000	      0.43482639	    101.86219848
     14.90000000	      0.44146316	    101.84869923
     14.90800000	      0.44694159	    101.83492705
     14.91700000	      0.45372941	    101.82267151
     14.92500000	      0.46036763	    101.80916745
     14.93300000	      0.46742521	    101.79707628
     14.94200000	      0.47419944	    101.78339426
     14.95000000	      0.48221770	    101.77048167
     14.95800000	      0.48913705	    101.75893576
     14.96700000	      0.49514166	    101.74816469
     14.97500000	      0.50226110	    101.73862092
     14.98300000	      0.50959575	    101.72849177
     14.99200000	      0.51577244	    101.71977413
     15.00000000	      0.52312542	    101.71233907
     15.00800000	      0.52956399	    101.70558068
     15.01700000	      0.53806058	    101.69672207
     15.02500000	      0.54547424	    101.68915063
     15.03300000	      0.55194821	    101.68242726
     15.04200000	      0.56067662	    101.67573234
     15.05000000	      0.56726337	    101.67112318
     15.05800000	      0.57390608	    101.66645898
     15.06700000	      0.58049756	    101.66183732
     15.07500000	      0.58727397	    101.65699009
     15.08300000	      0.59528931	    101.65321659
     15.09200000	      0.60311316	    101.64976779
     15.10000000	      0.61087363	    101.64335070
     15.10800000	      0.61903609	    101.63944769
     15.11700000	      0.62679207	    101.63345952
     15.12500000	      0.63465587	    101.62731768
     15.13300000	      0.64357209	    101.62022816
     15.14200000	      0.65135691	    101.61462413
     15.15000000	      0.65934892	    101.60825390
     15.15800000	      0.66749555	    101.60475383
     15.16700000	      0.67539573	    101.59810383
     15.17500000	      0.68238648	    101.59307813
     15.18300000	      0.68960569	    101.59031700
     15.19200000	      0.69582491	    101.58801545
     15.20000000	      0.70188449	    101.58331149
     15.20800000	      0.70813609	    101.58143844
     15.21700000	      0.71424060	    101.57964943
     15.22500000	      0.71761114	    101.58047874
     15.23300000	      0.72462116	    101.57716766
     15.24200000	      0.72865432	    101.57803027
     15.25000000	      0.73383713	    101.57619830
     15.25800000	      0.73727742	    101.57781156
     15.26700000	      0.74152131	    101.57908813
     15.27500000	      0.74600453	    101.58058310
     15.28300000	      0.74977224	    101.58168706
     15.29200000	      0.75423076	    101.58316962
     15.30000000	      0.75799899	    101.58427040
     15.30800000	      0.76302094	    101.58576775
     15.31700000	      0.76692203	    101.58663133
     15.32500000	      0.77072821	    101.58743502
     15.33300000	      0.77736160	    101.58204396
     15.34200000	      0.78137480	    101.58302054
     15.35000000	      0.78687394	    101.57896424
     15.35800000	      0.78956706	    101.57944564
     15.36700000	      0.79490870	    101.57539773
     15.37500000	      0.79949026	    101.57308645
     15.38300000	      0.80207588	    101.57355296
     15.39200000	      0.80588646	    101.56897310
     15.40000000	      0.80917700	    101.56537722
     15.40800000	      0.81063526	    101.56530367
     15.41700000	      0.81063526	    101.56530367
     15.42500000	      0.81318710	    101.56153737
     15.43300000	      0.81318710	    101.56153737
     15.44200000	      0.81240714	    101.56104904
     15.45000000	      0.81094507	    101.56103584
     15.45800000	      0.80947025	    101.56024117
     15.46700000	      0.80675086	    101.55956099
     15.47500000	      0.80381899	    101.55867953
     15.48300000	      0.79951826	    101.55780263
     15.49200000	      0.79321654	    101.56060304
     15.50000000	      0.78941082	    101.55985446
